<?xml version="1.0" ?><!DOCTYPE svg  PUBLIC '-//W3C//DTD SVG 1.1//EN'  'http://www.w3.org/Graphics/SVG/1.1/DTD/svg11.dtd'><svg enable-background="new 0 0 96 96" height="24" id="camera" version="1.1" viewBox="0 0 96 96" width="24px" xml:space="preserve" xmlns="http://www.w3.org/2000/svg" xmlns:xlink="http://www.w3.org/1999/xlink"><path d="M59.859,16l5.555,8.438L67.719,28H72h12c2.168,0,4,1.889,4,4.125v43.938c0,2.21-1.757,3.938-4,3.938H12  c-2.206,0-4-1.794-4-4V32.062c0-2.239,1.794-4.062,4-4.062h12h4.281l2.375-3.562l5.625-8.438H60 M64,8H32l-8,12H12  C5.37,20,0,25.434,0,32.062V76c0,6.63,5.37,12,12,12h72c6.63,0,12-5.309,12-11.938V32.124c0-6.63-5.37-12.125-12-12.125H72L64,8  L64,8z"/><path d="M48,40c6.617,0,12,5.383,12,12s-5.384,12-12,12c-6.617,0-12-5.383-12-12S41.382,40,48,40 M48,32c-11.046,0-20,8.955-20,20  s8.955,20,20,20c11.046,0,20-8.954,20-20S59.046,32,48,32L48,32z"/></svg>